<svg width="15" height="9" viewBox="0 0 15 9" fill="none" xmlns="http://www.w3.org/2000/svg">
<path d="M14.5608 0.484233C14.4215 0.330719 14.2561 0.208939 14.0741 0.125852C13.892 0.0427651 13.6969 0 13.4999 0C13.3028 0 13.1077 0.0427651 12.9256 0.125852C12.7436 0.208939 12.5782 0.330719 12.4389 0.484233L7.85297 5.53383C7.7592 5.63707 7.63205 5.69506 7.49947 5.69506C7.3669 5.69506 7.23974 5.63707 7.14598 5.53383L2.56107 0.484233C2.27982 0.174324 1.8983 0.000161034 1.50045 5.77671e-05C1.1026 -4.54994e-05 0.721007 0.173919 0.439618 0.483682C0.158229 0.793444 9.3811e-05 1.21363 4.17253e-08 1.6518C-9.37275e-05 2.08998 0.157862 2.51025 0.439118 2.82016L5.02502 7.87086C5.35003 8.22884 5.73587 8.5128 6.16053 8.70654C6.58518 8.90028 7.04033 9 7.49997 9C7.95962 9 8.41477 8.90028 8.83942 8.70654C9.26408 8.5128 9.64992 8.22884 9.97492 7.87086L14.5608 2.82016C14.842 2.51036 15 2.09024 15 1.65219C15 1.21414 14.842 0.794028 14.5608 0.484233Z" fill="white"/>
</svg>
