<svg width="20" height="20" viewBox="0 0 20 20" fill="none" xmlns="http://www.w3.org/2000/svg">
<path d="M12.9104 9.66094L18.7192 3.84624C19.0963 3.4176 19.2961 2.86144 19.2778 2.2908C19.2596 1.72016 19.0248 1.17787 18.6211 0.774164C18.2174 0.370456 17.6751 0.135626 17.1044 0.117407C16.5338 0.0991884 15.9776 0.298948 15.549 0.676081L9.73419 6.48479L3.90894 0.658111C3.70029 0.449464 3.45259 0.283957 3.17997 0.171038C2.90736 0.0581186 2.61517 2.19846e-09 2.3201 0C2.02502 -2.19845e-09 1.73284 0.0581186 1.46022 0.171038C1.18761 0.283957 0.939907 0.449464 0.731258 0.658111C0.522608 0.866758 0.357099 1.11446 0.244178 1.38707C0.131258 1.65968 0.0731386 1.95186 0.0731386 2.24693C0.0731386 2.542 0.131258 2.83419 0.244178 3.1068C0.357099 3.37941 0.522608 3.62711 0.731258 3.83575L6.55801 9.66094L0.749228 15.4741C0.521418 15.6778 0.337551 15.9258 0.208877 16.2029C0.0802031 16.48 0.00942732 16.7805 0.000879203 17.086C-0.00766891 17.3914 0.0461905 17.6954 0.159163 17.9793C0.272135 18.2632 0.441845 18.521 0.657909 18.7371C0.873972 18.9532 1.13185 19.1229 1.41576 19.2358C1.69967 19.3488 2.00364 19.4027 2.30908 19.3941C2.61452 19.3856 2.91501 19.3148 3.19215 19.1861C3.4693 19.0575 3.71728 18.8736 3.92092 18.6458L9.73419 12.8371L15.5415 18.6458C15.9629 19.0672 16.5344 19.3039 17.1303 19.3039C17.7262 19.3039 18.2978 19.0672 18.7192 18.6458C19.1405 18.2244 19.3773 17.6529 19.3773 17.057C19.3773 16.461 19.1405 15.8895 18.7192 15.4681L12.9104 9.66094Z" fill="white"/>
</svg>
