<svg width="23" height="23" viewBox="0 0 23 23" fill="none" xmlns="http://www.w3.org/2000/svg">
<path d="M20.1149 19.2578C18.9004 20.4741 17.4345 21.4098 15.8199 21.9993C14.2054 22.5888 12.4814 22.8179 10.769 22.6704C9.05654 22.523 7.3971 22.0025 5.90713 21.1457C4.41716 20.2888 3.13276 19.1162 2.14405 17.7103C1.15534 16.3044 0.486281 14.6991 0.183825 13.0071C-0.11863 11.3151 -0.0471553 9.57749 0.393234 7.91608C0.833623 6.25467 1.63226 4.70976 2.73309 3.38976C3.83393 2.06977 5.21029 1.00666 6.7656 0.275058C7.23094 0.0554746 7.74666 -0.0352559 8.259 0.0123256C8.77134 0.059907 9.26153 0.244058 9.67847 0.54558C10.0954 0.847101 10.4238 1.25495 10.6295 1.72661C10.8352 2.19826 10.9105 2.71645 10.8477 3.22715C10.0287 9.48811 13.2431 12.6859 19.4868 11.8662C19.9975 11.8035 20.5158 11.879 20.9874 12.0849C21.459 12.2907 21.8668 12.6193 22.1682 13.0364C22.4696 13.4535 22.6536 13.9438 22.7009 14.4562C22.7483 14.9687 22.6573 15.4844 22.4375 15.9497C21.8563 17.176 21.071 18.2947 20.1149 19.2578V19.2578ZM5.53839 4.68133C4.62933 5.58839 3.92893 6.68273 3.486 7.88812C3.04307 9.09352 2.86824 10.381 2.97371 11.6608C3.07917 12.9407 3.46239 14.1822 4.09666 15.2988C4.73094 16.4154 5.60102 17.3804 6.64631 18.1264C7.69159 18.8724 8.88695 19.3816 10.1491 19.6184C11.4113 19.8553 12.7099 19.8141 13.9546 19.4978C15.1992 19.1815 16.3599 18.5977 17.3559 17.787C18.3518 16.9763 19.1591 15.9582 19.7214 14.8037C11.6862 15.8074 6.90928 10.9999 7.91021 2.99254C7.03454 3.42528 6.2338 3.99542 5.53839 4.68133V4.68133Z" fill="white"/>
</svg>
