<svg width="40" height="40" viewBox="0 0 40 40" fill="none" xmlns="http://www.w3.org/2000/svg">
<path d="M17.3224 0C16.1052 0 15.0652 0.876548 14.8597 2.07564L14.3306 5.14915C14.0524 5.25551 13.775 5.3656 13.505 5.48651L10.9624 3.68963C9.84599 2.91781 8.53031 3.2003 7.75213 3.96484L3.96484 7.75036C3.10393 8.61126 2.98959 9.96604 3.69141 10.9606L5.48651 13.505C5.36469 13.775 5.25551 14.0507 5.14915 14.3288L2.07564 14.858C0.875639 15.0643 0 16.1052 0 17.3224V22.6776C0 23.8948 0.876548 24.9348 2.07564 25.1403L5.14915 25.6694C5.25551 25.9476 5.3656 26.225 5.48651 26.495L3.68963 29.0376C2.98781 30.0313 3.10393 31.387 3.96484 32.2479L7.75036 36.0352C8.73581 36.9988 10.1133 36.9222 10.9606 36.3086L13.505 34.5135C13.775 34.6353 14.0507 34.7445 14.3288 34.8509L14.858 37.9244C15.0643 39.1244 16.1052 40 17.3224 40H22.6776C23.8948 40 24.9348 39.1235 25.1403 37.9244L25.6694 34.8509C25.9476 34.7445 26.225 34.6344 26.495 34.5135L29.0376 36.3104C29.7876 36.8631 31.2215 37.0624 32.2479 36.0352L36.0352 32.2496C36.8961 31.3887 37.0104 30.034 36.3086 29.0394L34.5135 26.495C34.6353 26.225 34.7445 25.9493 34.8509 25.6712L37.9244 25.142C39.1244 24.9357 40 23.8948 40 22.6776V17.3224C40 16.1052 39.1235 15.0652 37.9244 14.8597L34.8509 14.3306C34.7445 14.0524 34.6344 13.775 34.5135 13.505L36.3104 10.9624C37.0122 9.96872 36.8961 8.61304 36.0352 7.75213L32.2496 3.96484C31.2887 3.02666 29.9567 3.04686 29.0394 3.69141L26.495 5.48651C26.225 5.36469 25.9493 5.25551 25.6712 5.14915L25.142 2.07564C24.9357 0.875639 23.8948 0 22.6776 0H17.3224ZM18.3771 3.63636H21.6246C21.6801 3.63636 21.7274 3.67592 21.7365 3.73047L22.4379 7.80895C24.0451 8.38622 25.5499 8.99467 26.8999 9.65376L30.2752 7.26918C30.3207 7.23736 30.3835 7.24251 30.4226 7.28161L32.7184 9.57919C32.7575 9.61828 32.7644 9.67933 32.7326 9.72479L30.3462 13.1019C31.0362 14.561 31.6583 16.0449 32.1911 17.5621L36.2695 18.2653C36.3241 18.2744 36.3636 18.3217 36.3636 18.3771V21.6246C36.3636 21.6801 36.3232 21.7274 36.2678 21.7365L32.1911 22.4379C31.6592 23.9551 31.0444 25.4417 30.3462 26.8999L32.7326 30.277C32.7644 30.3224 32.7575 30.3835 32.7184 30.4226L30.4226 32.7202C30.3835 32.7593 30.3207 32.7644 30.2752 32.7326L26.8999 30.348C25.4089 31.0489 23.9215 31.6628 22.4379 32.1928L21.7347 36.2695C21.7256 36.3241 21.6783 36.3636 21.6229 36.3636H18.3754C18.3199 36.3636 18.2726 36.3232 18.2635 36.2678L17.5621 32.1911C16.0994 31.6829 14.6138 31.0771 13.1001 30.3462L9.72301 32.7326C9.67756 32.7644 9.61651 32.7575 9.57742 32.7184L7.27983 30.4226C7.24074 30.3835 7.23558 30.3207 7.2674 30.2752L9.65199 26.8999C8.94381 25.3862 8.32899 23.8988 7.80717 22.4379L3.73047 21.7347C3.67592 21.7256 3.63636 21.6783 3.63636 21.6229V18.3754C3.63636 18.3199 3.67592 18.2735 3.73047 18.2635L7.80895 17.5604C8.33713 16.0731 8.94286 14.5865 9.65376 13.1001L7.2674 9.72301C7.23558 9.67756 7.24251 9.61651 7.28161 9.57742L9.57742 7.27983C9.61651 7.24074 9.67933 7.23558 9.72479 7.2674L13.1001 9.65199C14.5074 8.97653 15.9994 8.36536 17.5621 7.80717L18.2653 3.73047C18.2744 3.67592 18.3217 3.63636 18.3771 3.63636ZM20 11.8182C15.4809 11.8182 11.8182 15.4809 11.8182 20C11.8182 24.5191 15.4809 28.1818 20 28.1818C24.5191 28.1818 28.1818 24.5191 28.1818 20C28.1818 15.4809 24.5191 11.8182 20 11.8182ZM20 15.4545C22.51 15.4545 24.5455 17.49 24.5455 20C24.5455 22.51 22.51 24.5455 20 24.5455C17.49 24.5455 15.4545 22.51 15.4545 20C15.4545 17.49 17.49 15.4545 20 15.4545Z" fill="white"/>
</svg>
