<svg width="1024" height="983" viewBox="0 0 1024 983" fill="none" xmlns="http://www.w3.org/2000/svg">
<g filter="url(#filter0_d_15_27)">
<path d="M332.35 23.4247C325.144 33.0327 314.335 71.4647 309.531 107.495C304.727 144.726 296.32 178.354 292.717 183.158C287.913 186.761 254.285 184.359 218.255 175.952C159.406 162.741 147.396 162.741 119.773 180.756C83.743 204.776 87.346 244.409 134.185 318.871C150.999 345.293 164.21 368.112 164.21 370.514C164.21 372.916 141.391 384.926 113.768 396.936C50.115 424.559 8.07996 460.589 8.07996 487.011C8.07996 513.433 50.115 549.463 113.768 577.086C141.391 589.096 164.21 601.106 164.21 603.508C164.21 605.91 147.396 637.136 126.979 673.166C68.13 777.653 100.557 823.291 218.255 799.271C254.285 792.065 289.114 788.462 296.32 793.266C302.325 796.869 308.33 823.291 308.33 850.914C308.33 918.17 331.149 960.205 369.581 965.009C393.601 967.411 414.018 955.401 456.053 910.964L512.5 853.316L570.148 910.964C602.575 943.391 638.605 967.411 653.017 967.411C689.047 967.411 716.67 922.974 716.67 865.326C716.67 788.462 727.479 780.055 806.745 798.07C865.594 811.281 877.604 811.281 905.227 793.266C941.257 769.246 937.654 729.613 890.815 655.151C874.001 628.729 860.79 605.91 860.79 603.508C860.79 601.106 883.609 589.096 912.433 577.086C974.885 549.463 1016.92 513.433 1016.92 487.011C1016.92 460.589 974.885 424.559 912.433 396.936C883.609 384.926 860.79 372.916 860.79 370.514C860.79 368.112 877.604 336.886 898.021 300.856C956.87 196.369 924.443 150.731 806.745 174.751C770.715 181.957 735.886 185.56 728.68 180.756C722.675 177.153 716.67 150.731 716.67 123.108C716.67 58.2537 693.851 13.8167 657.821 9.01266C637.404 5.40966 613.384 19.8217 571.349 61.8567L512.5 119.505L454.852 63.0577C396.003 5.40966 358.772 -6.60034 332.35 23.4247ZM512.5 198.771C530.515 198.771 561.741 179.555 592.967 148.329L644.61 97.8867V141.123C644.61 243.208 684.243 279.238 774.318 260.022C805.544 254.017 831.966 250.414 834.368 251.615C835.569 254.017 823.559 282.841 805.544 316.469C767.112 392.132 776.72 417.353 863.192 456.986L923.242 484.609L863.192 515.835C775.519 560.272 767.112 583.091 805.544 657.553C823.559 691.181 835.569 721.206 831.966 723.608C829.564 726.01 803.142 722.407 773.117 715.201C685.444 692.382 644.61 730.814 644.61 832.899V876.135L592.967 825.693C561.741 794.467 530.515 775.251 512.5 775.251C494.485 775.251 463.259 794.467 432.033 825.693C381.591 874.934 380.39 876.135 380.39 844.909C380.39 733.216 340.757 692.382 253.084 714C221.858 722.407 195.436 726.01 193.034 723.608C189.431 721.206 201.441 691.181 219.456 657.553C249.481 599.905 249.481 593.9 232.667 567.478C223.059 551.865 193.034 530.247 165.411 517.036C137.788 505.026 116.17 491.815 116.17 487.011C116.17 482.207 137.788 468.996 165.411 456.986C193.034 443.775 223.059 422.157 232.667 406.544C249.481 380.122 249.481 374.117 219.456 316.469C201.441 282.841 189.431 254.017 190.632 251.615C193.034 250.414 219.456 254.017 250.682 260.022C340.757 279.238 380.39 243.208 380.39 141.123V97.8867L432.033 148.329C463.259 179.555 494.485 198.771 512.5 198.771Z" fill="white" stroke="white" stroke-width="15"/>
<path d="M512.5 725.201C702.993 725.2 815.751 519.513 714.329 357.99L714.299 357.941L714.268 357.893C690.667 321.249 662.142 293.847 627.992 275.665C593.86 257.494 554.653 248.821 510.098 248.821H509.925L509.753 248.827C491.75 249.447 471.392 251.92 452.891 255.621C434.603 259.278 417.246 264.306 405.736 270.4V270.401C362.411 293.302 329.411 322.675 307.294 359.009C285.171 395.354 274.31 438.053 274.31 487.01C274.31 625.844 373.667 725.201 512.5 725.201ZM636.044 562.318C579.882 655.547 445.118 655.548 388.955 562.318L388.937 562.286L388.917 562.253C312.674 437.797 450.594 290.297 581.117 357.753C652.787 395.865 678.74 492.657 636.084 562.252L636.064 562.285L636.044 562.318Z" fill="white" stroke="white" stroke-width="20"/>
</g>
<defs>
<filter id="filter0_d_15_27" x="-3.42004" y="0" width="1031.84" height="982.911" filterUnits="userSpaceOnUse" color-interpolation-filters="sRGB">
<feFlood flood-opacity="0" result="BackgroundImageFix"/>
<feColorMatrix in="SourceAlpha" type="matrix" values="0 0 0 0 0 0 0 0 0 0 0 0 0 0 0 0 0 0 127 0" result="hardAlpha"/>
<feOffset dy="4"/>
<feGaussianBlur stdDeviation="2"/>
<feComposite in2="hardAlpha" operator="out"/>
<feColorMatrix type="matrix" values="0 0 0 0 0 0 0 0 0 0 0 0 0 0 0 0 0 0 0.25 0"/>
<feBlend mode="normal" in2="BackgroundImageFix" result="effect1_dropShadow_15_27"/>
<feBlend mode="normal" in="SourceGraphic" in2="effect1_dropShadow_15_27" result="shape"/>
</filter>
</defs>
</svg>
